<?xml version="1.0" encoding="UTF-8" standalone="no"?>
<!-- Created with Inkscape (http://www.inkscape.org/) -->

<svg
   xmlns:dc="http://purl.org/dc/elements/1.1/"
   xmlns:cc="http://creativecommons.org/ns#"
   xmlns:rdf="http://www.w3.org/1999/02/22-rdf-syntax-ns#"
   xmlns:svg="http://www.w3.org/2000/svg"
   xmlns="http://www.w3.org/2000/svg"
   xmlns:xlink="http://www.w3.org/1999/xlink"
   xmlns:sodipodi="http://sodipodi.sourceforge.net/DTD/sodipodi-0.dtd"
   xmlns:inkscape="http://www.inkscape.org/namespaces/inkscape"
   id="svg10864"
   sodipodi:docname="factory.svg"
   viewBox="0 0 426.50111 179.63718"
   version="1.1"
   inkscape:version="0.48.4 r9939"
   width="100%"
   height="100%"
   inkscape:export-filename="/home/joseluis/jtouron@virolai.com/Tecnologia/intro_python/03_funciones_files/factory.png"
   inkscape:export-xdpi="300"
   inkscape:export-ydpi="300">
  <defs
     id="defs10866">
    <linearGradient
       id="linearGradient40237"
       y2="432.28"
       gradientUnits="userSpaceOnUse"
       x2="-214.8"
       gradientTransform="matrix(1,0,0,0.78415,-2.8281,112.43)"
       y1="432.28"
       x1="-245.49001"
       inkscape:collect="always">
      <stop
         id="stop40233"
         style="stop-color:#d3d7cf"
         offset="0" />
      <stop
         id="stop40239"
         style="stop-color:#eeeeec"
         offset=".11792" />
      <stop
         id="stop40235"
         style="stop-color:#555753"
         offset="1" />
    </linearGradient>
    <linearGradient
       inkscape:collect="always"
       x1="248.07001"
       y1="224.94"
       gradientTransform="matrix(1.6732,0,0,1.1476,-203.14,-178.37)"
       x2="230.58"
       gradientUnits="userSpaceOnUse"
       y2="244.74001"
       id="linearGradient9495">
      <stop
         offset="0"
         style="stop-color:#ff2a26"
         id="stop7092" />
      <stop
         offset="1"
         style="stop-color:#96000d"
         id="stop7094" />
    </linearGradient>
    <linearGradient
       inkscape:collect="always"
       xlink:href="#linearGradient9495"
       id="linearGradient3164"
       gradientUnits="userSpaceOnUse"
       gradientTransform="matrix(1.6732,0,0,1.1476,-203.14,-178.37)"
       x1="248.07001"
       y1="224.94"
       x2="230.58"
       y2="244.74001" />
    <linearGradient
       inkscape:collect="always"
       xlink:href="#linearGradient9495"
       id="linearGradient3182"
       gradientUnits="userSpaceOnUse"
       gradientTransform="matrix(1.6732,0,0,1.1476,-203.14,-178.37)"
       x1="248.07001"
       y1="224.94"
       x2="230.58"
       y2="244.74001" />
  </defs>
  <sodipodi:namedview
     id="base"
     bordercolor="#666666"
     inkscape:pageshadow="2"
     inkscape:window-y="21"
     pagecolor="#ffffff"
     inkscape:window-height="686"
     inkscape:window-maximized="0"
     inkscape:zoom="1.672725"
     inkscape:window-x="50"
     showgrid="false"
     borderopacity="1.0"
     inkscape:current-layer="layer1"
     inkscape:cx="249.91743"
     inkscape:cy="99.965765"
     inkscape:window-width="1241"
     inkscape:pageopacity="0.0"
     inkscape:document-units="px"
     fit-margin-top="2"
     fit-margin-left="2"
     fit-margin-right="2"
     fit-margin-bottom="2" />
  <g
     id="layer1"
     inkscape:label="Capa 1"
     inkscape:groupmode="layer"
     transform="translate(-302.06333,-573.02557)">
    <path
       id="path39383"
       sodipodi:nodetypes="ccccc"
       style="fill:#364e59"
       d="m 586.19,722.59 -46.029,26.575 v -53.15 L 586.19,669.44 v 53.15 z"
       inkscape:connector-curvature="0" />
    <path
       id="path5471"
       style="fill:#555753"
       d="m 448.1,625.15 46.029,-26.575 15.343,26.575 -46.029,26.575 L 448.1,625.15 z"
       inkscape:connector-curvature="0" />
    <path
       id="path5473"
       style="fill:#555753"
       d="M 463.45,634 509.479,607.425 524.822,634 478.793,660.575 463.45,634 z"
       inkscape:connector-curvature="0" />
    <path
       id="path5475"
       style="fill:#555753"
       d="m 478.79,642.86 46.029,-26.575 15.343,26.575 -46.029,26.575 -15.343,-26.575 z"
       inkscape:connector-curvature="0" />
    <path
       id="path5477"
       style="fill:#555753"
       d="m 494.13,651.72 46.029,-26.575 15.343,26.575 -46.029,26.575 -15.343,-26.575 z"
       inkscape:connector-curvature="0" />
    <path
       id="path5479"
       style="fill:#555753"
       d="m 509.47,660.58 46.029,-26.575 15.343,26.575 -46.029,26.575 -15.343,-26.575 z"
       inkscape:connector-curvature="0" />
    <path
       id="path5481"
       style="fill:#555753"
       d="m 524.82,669.44 46.029,-26.575 15.343,26.575 -46.029,26.575 -15.343,-26.575 z"
       inkscape:connector-curvature="0" />
    <path
       id="path39379"
       sodipodi:nodetypes="cccccccccccccccccc"
       style="fill:#9eabb0"
       d="m 448.11,625.16 v 17.688 l -0.014,53.158 92.062,53.156 0.014,-53.158 -15.344,-26.562 v 17.688 h -0.0312 l -15.312,-26.562 v 17.719 l -15.344,-26.562 v 17.719 l -15.344,-26.594 v 17.719 l -15.344,-26.562 v 17.688 h -0.0312 l -15.312,-26.531 z"
       inkscape:connector-curvature="0" />
    <path
       id="path5483"
       style="fill:#babdb6"
       d="m 570.85,749.16 -15.343,-8.8583 v -35.433 l 15.343,8.8583 v 35.433 z"
       inkscape:connector-curvature="0" />
    <path
       id="path5485"
       style="fill:#888a85"
       d="m 570.85,749.16 15.343,-8.8583 v -35.433 l -15.343,8.8583 v 35.433 z"
       inkscape:connector-curvature="0" />
    <path
       id="path5966"
       style="fill:#151819"
       d="m 540.11,696.07 45.75,-26.5 -0.25,3.75 -45.625,25.75 0.125,-3 z"
       inkscape:connector-curvature="0" />
    <path
       id="path5487"
       sodipodi:nodetypes="ccccc"
       style="fill:#eeeeec"
       d="m 555.5,704.87 15.343,-8.8583 15.343,8.8583 -15.343,8.8583 L 555.5,704.87 z"
       inkscape:connector-curvature="0" />
    <g
       id="g40252"
       transform="matrix(1,0,0,0.80474,813,284.95)">
      <path
         id="rect40229"
         sodipodi:nodetypes="cccssscccc"
         style="fill:url(#linearGradient40237)"
         d="m -246.33,381.95 -2,138.92 h 0.0625 c -10e-4,0.0254 0,0.048 0,0.0735 0,1.9181 3.4507,3.4797 7.6875,3.4797 4.2368,0 7.6562,-1.5615 7.6562,-3.4797 0,-0.15171 -0.0208,-0.29449 -0.0625,-0.44108 l -2,-138.55 h -13.344 l 2,10e-6 z"
         inkscape:connector-curvature="0" />
      <path
         id="path40241"
         sodipodi:rx="7.6714849"
         sodipodi:ry="4.4291339"
         style="fill:#eeeeec"
         sodipodi:type="arc"
         d="m -233.21314,-338.09055 c 0,2.44615 -3.43464,4.42914 -7.67149,4.42914 -4.23684,0 -7.67148,-1.98299 -7.67148,-4.42914 0,-2.44614 3.43464,-4.42913 7.67148,-4.42913 4.23685,0 7.67149,1.98299 7.67149,4.42913 z"
         transform="matrix(0.75605,0,0,0.59285,-58.505,581.95)"
         sodipodi:cy="-338.09055"
         sodipodi:cx="-240.88463" />
      <path
         id="path5489"
         sodipodi:rx="7.6714849"
         sodipodi:ry="4.4291339"
         style="fill:#888a85"
         sodipodi:type="arc"
         d="m -233.21314,-338.09055 c 0,2.44615 -3.43464,4.42914 -7.67149,4.42914 -4.23684,0 -7.67148,-1.98299 -7.67148,-4.42914 0,-2.44614 3.43464,-4.42913 7.67148,-4.42913 4.23685,0 7.67149,1.98299 7.67149,4.42913 z"
         transform="matrix(0.52141,0,0,0.40886,-115.02,520.56)"
         sodipodi:cy="-338.09055"
         sodipodi:cx="-240.88463" />
    </g>
    <path
       id="path5529"
       style="fill:none;stroke:#000000;stroke-width:1px"
       d="m 463.45,634 46.029,-26.575"
       inkscape:connector-curvature="0" />
    <path
       id="path5531"
       style="fill:none;stroke:#000000;stroke-width:1px"
       d="m 478.79,642.86 46.029,-26.575"
       inkscape:connector-curvature="0" />
    <path
       id="path5533"
       style="fill:none;stroke:#000000;stroke-width:1px"
       d="m 494.13,651.72 46.029,-26.575"
       inkscape:connector-curvature="0" />
    <path
       id="path5535"
       style="fill:none;stroke:#000000;stroke-width:1px"
       d="m 510.24,660.69 -0.76248,-0.1122 46.029,-26.575"
       inkscape:connector-curvature="0" />
    <path
       id="path5537"
       sodipodi:nodetypes="cc"
       style="fill:none;stroke:#000000;stroke-width:1px"
       d="m 525.49,668.94 38.016,-21.22"
       inkscape:connector-curvature="0" />
    <path
       id="path5539"
       style="fill:none;stroke:#000000;stroke-width:1px;stroke-linejoin:bevel"
       d="m 448.49,626.44 14.959,25.28 v -17.717 l 15.343,26.575 v -17.717 l 15.343,26.575 v -17.717 l 15.343,26.575 v -17.717 l 15.343,26.575 v -17.717 l 15.343,26.575"
       inkscape:connector-curvature="0" />
    <g
       id="g5684"
       style="fill:#0084c8;stroke-width:1.25"
       transform="matrix(0.16,0,0,0.15593,450.89,650.49)">
      <path
         id="path5686"
         sodipodi:nodetypes="ccccc"
         style="fill:#0084c8"
         d="m 184.12,131.1 v 53.15 l 30.686,17.717 v -53.15 L 184.12,131.1 z"
         inkscape:connector-curvature="0" />
      <path
         id="path5688"
         style="fill:#0084c8;stroke:#ffffff;stroke-width:1.58270001"
         d="m 214.8,148.82 v 53.15"
         inkscape:connector-curvature="0" />
    </g>
    <g
       id="g5690"
       style="fill:#0084c8;stroke-width:1.25"
       transform="matrix(0.16,0,0,0.15593,445.98,647.73)">
      <path
         id="path5692"
         sodipodi:nodetypes="ccccc"
         style="fill:#0084c8"
         d="m 184.12,131.1 v 53.15 l 30.686,17.717 v -53.15 L 184.12,131.1 z"
         inkscape:connector-curvature="0" />
      <path
         id="path5694"
         style="fill:#0084c8;stroke:#ffffff;stroke-width:1.58270001"
         d="m 214.8,148.82 v 53.15"
         inkscape:connector-curvature="0" />
    </g>
    <g
       id="g5794"
       style="fill:#0084c8"
       transform="matrix(0.16,0,0,0.15593,480.35,667.31)">
      <path
         id="path5796"
         sodipodi:nodetypes="ccccc"
         style="fill:#0084c8"
         d="m 184.12,131.1 v 53.15 l 30.686,17.717 v -53.15 L 184.12,131.1 z"
         inkscape:connector-curvature="0" />
      <path
         id="path5798"
         style="fill:#0084c8;stroke:#ffffff;stroke-width:1.58270001"
         d="m 214.8,148.82 v 53.15"
         inkscape:connector-curvature="0" />
    </g>
    <g
       id="g5800"
       style="fill:#0084c8;stroke-width:1.25"
       transform="matrix(0.16,0,0,0.15593,475.44,664.54)">
      <path
         id="path5802"
         sodipodi:nodetypes="ccccc"
         style="fill:#0084c8"
         d="m 184.12,131.1 v 53.15 l 30.686,17.717 v -53.15 L 184.12,131.1 z"
         inkscape:connector-curvature="0" />
      <path
         id="path5804"
         style="fill:#0084c8;stroke:#ffffff;stroke-width:1.58270001"
         d="m 214.8,148.82 v 53.15"
         inkscape:connector-curvature="0" />
    </g>
    <path
       id="path5806"
       sodipodi:nodetypes="ccccc"
       style="fill:#555753"
       d="m 478.79,714.18 -1e-5,-28.961 30.686,17.266 v 28.961 l -30.686,-17.266 z"
       inkscape:connector-curvature="0" />
    <path
       id="path5808"
       style="fill:none;stroke:#000000;stroke-width:0.25"
       d="m 494.33,694.16 -0.19548,28.65"
       inkscape:connector-curvature="0" />
    <path
       id="path5810"
       style="fill:none;stroke:#000000;stroke-width:0.25"
       d="m 494.33,694.16 -0.19548,28.65"
       inkscape:connector-curvature="0" />
    <path
       id="path5822"
       sodipodi:nodetypes="ccccc"
       style="fill:#2e3436"
       d="m 514.62,722.8 v 10.63 l 6.1372,3.5433 v -10.63 L 514.62,722.8 z"
       inkscape:connector-curvature="0" />
    <path
       id="path5830"
       sodipodi:nodetypes="ccccc"
       style="fill:#555753"
       d="m 522.12,724.17 v 2.126 l -3.9823,2.0135 0.3,-2.0135 3.6823,-2.126 z"
       inkscape:connector-curvature="0" />
    <path
       id="path5834"
       sodipodi:nodetypes="ccccc"
       style="fill:#babdb6"
       d="m 522.12,724.17 -3.9823,4.076 -7.2146,-4.252 3.8323,-4.076 7.3646,4.252 z"
       inkscape:connector-curvature="0" />
    <path
       id="path5491"
       sodipodi:nodetypes="cscccccccccccccccccccccccscc"
       style="fill:none;stroke:#2e3436;stroke-width:3;stroke-linejoin:bevel"
       d="m 572.38,589.85 c -3.2032,0 -5.7812,0.95797 -5.7812,2.125 0,0.14588 0.0165,0.26869 0.0937,0.40625 l -0.96875,53.406 -2.5625,1.5 -7.6562,-13.281 -7.6562,4.4375 -7.6875,-13.312 -7.6875,4.4375 -7.6562,-13.281 -7.6562,4.4375 -7.6875,-13.312 -7.6875,4.4375 -7.6562,-13.281 -46.031,26.562 0.0312,0.0625 -0.0312,70.812 92.062,53.156 15.344,-8.875 15.344,8.875 15.344,-8.875 v -17.719 -53.125 l -7,-12.125 -1.1562,-64.906 c 0.0902,-0.14806 0.15625,-0.27955 0.15625,-0.4375 0,-1.167 -2.6092,-2.125 -5.8125,-2.125 h 5e-5 z"
       inkscape:connector-curvature="0" />
    <path
       id="path5949"
       sodipodi:nodetypes="ccccccccccccccccccc"
       style="fill:#2e3436"
       d="m 448.11,625.16 v 17.688 l -0.014,3.158 92.062,53.156 0.014,-3.158 -15.344,-26.562 v 17.688 h -0.0312 l -15.312,-26.562 v 17.719 l -15.344,-26.562 v 17.719 l -15.344,-26.594 v 17.719 l -15.344,-26.562 v 17.688 h -0.0312 l -15.312,-26.531 h -10e-5 z"
       inkscape:connector-curvature="0" />
    <g
       transform="matrix(2.1462033,0,0,2.1462033,-16.737091,475.98161)"
       inkscape:label="Layer 1"
       id="layer1-2">
      <path
         d="m 200.81,78.34 v 5.348 h -20.89 v 15.299 h 20.89 v 5.383 L 214.68,91.337 200.81,78.34 z"
         style="color:#000000;fill:url(#linearGradient3182);stroke:#6b1a11;stroke-width:1.75;stroke-linejoin:round"
         sodipodi:nodetypes="cccccccc"
         id="path10091"
         inkscape:connector-curvature="0" />
    </g>
    <g
       id="g3160"
       inkscape:label="Layer 1"
       transform="matrix(2.1462033,0,0,2.1462033,204.45886,481.36205)">
      <path
         inkscape:connector-curvature="0"
         id="path3162"
         sodipodi:nodetypes="cccccccc"
         style="color:#000000;fill:url(#linearGradient3164);stroke:#6b1a11;stroke-width:1.75;stroke-linejoin:round"
         d="m 200.81,78.34 v 5.348 h -20.89 v 15.299 h 20.89 v 5.383 L 214.68,91.337 200.81,78.34 z" />
    </g>
    <text
       xml:space="preserve"
       style="font-size:9px;font-style:normal;font-variant:normal;font-weight:normal;font-stretch:normal;text-align:center;line-height:125%;letter-spacing:0px;word-spacing:0px;text-anchor:middle;fill:#000000;fill-opacity:1;stroke:none;font-family:Helvetica;-inkscape-font-specification:Helvetica"
       x="332.86267"
       y="658.59467"
       id="text3166"
       sodipodi:linespacing="125%"><tspan
         sodipodi:role="line"
         id="tspan3168"
         x="334.52673"
         y="658.59467"
         style="font-size:12px;font-weight:bold;-inkscape-font-specification:Helvetica Bold">VALORES </tspan><tspan
         sodipodi:role="line"
         x="334.52673"
         y="673.59467"
         id="tspan3170"
         style="font-size:12px;font-weight:bold;-inkscape-font-specification:Helvetica Bold">DE </tspan><tspan
         sodipodi:role="line"
         x="332.86267"
         y="688.59467"
         id="tspan3172"
         style="font-size:12px;font-weight:bold;-inkscape-font-specification:Helvetica Bold">ENTRADA</tspan></text>
    <text
       sodipodi:linespacing="125%"
       id="text3174"
       y="666.96423"
       x="697.53711"
       style="font-size:9px;font-style:normal;font-variant:normal;font-weight:normal;font-stretch:normal;text-align:center;line-height:125%;letter-spacing:0px;word-spacing:0px;text-anchor:middle;fill:#000000;fill-opacity:1;stroke:none;font-family:Helvetica;-inkscape-font-specification:Helvetica"
       xml:space="preserve"><tspan
         style="font-size:12px;font-weight:bold;-inkscape-font-specification:Helvetica Bold"
         y="666.96423"
         x="699.20117"
         id="tspan3176"
         sodipodi:role="line">VALORES </tspan><tspan
         style="font-size:12px;font-weight:bold;-inkscape-font-specification:Helvetica Bold"
         id="tspan3178"
         y="681.96423"
         x="699.20117"
         sodipodi:role="line">DE </tspan><tspan
         style="font-size:12px;font-weight:bold;-inkscape-font-specification:Helvetica Bold"
         id="tspan3180"
         y="696.96423"
         x="697.53711"
         sodipodi:role="line">SALIDA</tspan></text>
    <text
       sodipodi:linespacing="125%"
       id="text3184"
       y="586.25757"
       x="519.3847"
       style="font-size:9px;font-style:normal;font-variant:normal;font-weight:normal;font-stretch:normal;text-align:center;line-height:125%;letter-spacing:0px;word-spacing:0px;text-anchor:middle;fill:#000000;fill-opacity:1;stroke:none;font-family:Helvetica;-inkscape-font-specification:Helvetica"
       xml:space="preserve"><tspan
         style="font-size:12px;font-weight:bold;-inkscape-font-specification:Helvetica Bold"
         id="tspan3190"
         y="586.25757"
         x="519.3847"
         sodipodi:role="line">FUNCIÓN</tspan></text>
  </g>
  <metadata
     id="metadata52">
    <rdf:RDF>
      <cc:Work>
        <dc:format>image/svg+xml</dc:format>
        <dc:type
           rdf:resource="http://purl.org/dc/dcmitype/StillImage" />
        <cc:license
           rdf:resource="http://creativecommons.org/licenses/publicdomain/" />
        <dc:publisher>
          <cc:Agent
             rdf:about="http://openclipart.org/">
            <dc:title>Openclipart</dc:title>
          </cc:Agent>
        </dc:publisher>
        <dc:title>isocity factory</dc:title>
        <dc:date>2010-03-20T21:36:13</dc:date>
        <dc:description />
        <dc:source>https://openclipart.org/detail/32773/isocity-factory-by-rg1024</dc:source>
        <dc:creator>
          <cc:Agent>
            <dc:title>rg1024</dc:title>
          </cc:Agent>
        </dc:creator>
        <dc:subject>
          <rdf:Bag>
            <rdf:li>building</rdf:li>
            <rdf:li>factory</rdf:li>
            <rdf:li>isometric</rdf:li>
          </rdf:Bag>
        </dc:subject>
      </cc:Work>
      <cc:License
         rdf:about="http://creativecommons.org/licenses/publicdomain/">
        <cc:permits
           rdf:resource="http://creativecommons.org/ns#Reproduction" />
        <cc:permits
           rdf:resource="http://creativecommons.org/ns#Distribution" />
        <cc:permits
           rdf:resource="http://creativecommons.org/ns#DerivativeWorks" />
      </cc:License>
    </rdf:RDF>
  </metadata>
</svg>
